<?xml version="1.0" encoding="UTF-8" standalone="no"?>
<svg
   viewBox="0 0 640 512"
   version="1.1"
   id="svg4"
   sodipodi:docname="favicon.svg"
   inkscape:version="1.2.2 (b0a8486541, 2022-12-01)"
   xmlns:inkscape="http://www.inkscape.org/namespaces/inkscape"
   xmlns:sodipodi="http://sodipodi.sourceforge.net/DTD/sodipodi-0.dtd"
   xmlns="http://www.w3.org/2000/svg"
   xmlns:svg="http://www.w3.org/2000/svg">
  <sodipodi:namedview
     id="namedview5"
     pagecolor="#ffffff"
     bordercolor="#666666"
     borderopacity="1.0"
     inkscape:showpageshadow="2"
     inkscape:pageopacity="0.0"
     inkscape:pagecheckerboard="0"
     inkscape:deskcolor="#d1d1d1"
     showgrid="false"
     inkscape:zoom="1.2406976"
     inkscape:cx="310.7123"
     inkscape:cy="326.02626"
     inkscape:current-layer="svg4"
     showguides="true" />
  <defs
     id="defs8" />
  <rect
     style="fill:#000000;stroke-width:10"
     id="rect340"
     width="640"
     height="512"
     x="0"
     y="0" />
  <!--! Font Awesome Pro 6.2.1 by @fontawesome - https://fontawesome.com License - https://fontawesome.com/license (Commercial License) Copyright 2022 Fonticons, Inc. -->
  <path
     id="rect389"
     style="fill:#ffffff;stroke:none;stroke-width:10"
     d="M 409.22959,82.153123 V 253.46221 H 308.50947 L 459.67454,429.84688 610.67273,253.46221 H 509.95261 V 82.153123 Z m -266.72346,0.676161 c -33.36752,0 -59.822332,8.926152 -79.361884,26.781976 C 43.604738,127.15922 33.836,150.71195 33.836,180.26641 c 0,26.47587 7.664416,48.94951 22.995444,67.42105 15.63163,18.16369 37.427359,30.63207 65.383916,37.405 l 33.36526,7.85215 c 10.82188,2.46288 19.23909,7.23387 25.25123,14.31461 6.01219,7.08077 9.02036,15.5465 9.02036,25.398 0,11.39076 -4.06035,20.31979 -12.17677,26.78484 -7.81581,6.46503 -18.7878,9.69653 -32.91637,9.69653 -14.72982,0 -26.4517,-3.2315 -35.16933,-9.69653 -8.41705,-6.7729 -12.625617,-15.8573 -12.625617,-27.2481 H 29.327271 c 0,19.70299 4.659082,36.78985 13.977954,51.25922 9.318843,14.46939 22.543384,25.70618 39.678056,33.71054 17.134669,8.00432 37.276599,12.007 60.423449,12.007 23.14682,0 43.13765,-4.1552 59.9717,-12.46737 17.13468,-8.31221 30.36207,-20.01231 39.68095,-35.09739 9.61944,-15.0851 14.42969,-32.477 14.42969,-52.17996 0,-27.39945 -7.51617,-49.87598 -22.54658,-67.42393 -15.03041,-17.85583 -37.12552,-30.16887 -66.28452,-36.94174 l -32.91639,-7.8493 c -11.12249,-2.46288 -19.69083,-7.08132 -25.70297,-13.85424 -5.71157,-7.08073 -8.56576,-15.08607 -8.56576,-24.014 0,-12.00649 3.45582,-21.08803 10.36981,-27.24522 6.91398,-6.15716 16.83385,-9.23615 29.76,-9.23615 13.82797,0 24.34945,3.07899 31.56405,9.23615 7.51519,6.15719 11.27329,14.62291 11.27329,25.398 h 67.63685 c 0,-28.93875 -9.91983,-51.87571 -29.75998,-68.80792 C 202.77733,91.447541 176.17426,82.829284 142.50613,82.829284 Z" />
</svg>
