<?xml version="1.0" encoding="UTF-8" standalone="no"?>
<svg
   viewBox="0 0 640 512"
   version="1.1"
   id="svg4"
   sodipodi:docname="logo.svg"
   inkscape:version="1.2.2 (b0a8486541, 2022-12-01)"
   xmlns:inkscape="http://www.inkscape.org/namespaces/inkscape"
   xmlns:sodipodi="http://sodipodi.sourceforge.net/DTD/sodipodi-0.dtd"
   xmlns="http://www.w3.org/2000/svg"
   xmlns:svg="http://www.w3.org/2000/svg">
  <sodipodi:namedview
     id="namedview5"
     pagecolor="#ffffff"
     bordercolor="#666666"
     borderopacity="1.0"
     inkscape:showpageshadow="2"
     inkscape:pageopacity="0.0"
     inkscape:pagecheckerboard="0"
     inkscape:deskcolor="#d1d1d1"
     showgrid="false"
     inkscape:zoom="1.2406976"
     inkscape:cx="169.25962"
     inkscape:cy="370.35616"
     inkscape:current-layer="svg4"
     showguides="true" />
  <defs
     id="defs8" />
  <path
     d="m 46.199038,59.099609 c -25.499925,0 -46.1992179026,20.699671 -46.1992179026,46.099611 v 301.5 c 0,25.49992 20.6992929026,46.20117 46.1992179026,46.20117 H 593.90021 c 25.49994,0 46.19961,-20.69968 46.09961,-46.09961 V 105.19922 c 0,-25.39994 -20.69928,-46.09961 -46.19922,-46.09961 z M 380.82013,137.99219 h 68.3711 v 116.28515 h 68.36914 L 415.06232,374.00781 312.45099,254.27734 h 68.36914 z m -181.05273,0.45898 c 22.85405,0 40.91227,5.85009 54.17578,17.55274 13.46757,11.49366 20.20117,27.0633 20.20117,46.70703 h -45.91211 c 0,-7.31416 -2.551,-13.06072 -7.65234,-17.24024 -4.8973,-4.17951 -12.0393,-6.26953 -21.42578,-6.26953 -8.77432,0 -15.50794,2.09002 -20.20117,6.26953 -4.69325,4.17952 -7.03907,10.34409 -7.03907,18.49414 0,6.06031 1.93743,11.49435 5.81446,16.30078 4.08107,4.59748 9.89727,7.73249 17.44726,9.4043 l 22.34375,5.32813 c 19.79324,4.59746 34.79144,12.95557 44.99414,25.07617 10.2027,11.91162 15.30469,27.16873 15.30469,45.76758 0,13.37445 -3.2652,25.1801 -9.79492,35.41992 -6.32568,10.23981 -15.30447,18.18187 -26.93555,23.82422 -11.42702,5.64234 -24.99683,8.46289 -40.70898,8.46289 -15.71217,0 -29.38455,-2.71702 -41.01563,-8.15039 -11.63108,-5.43338 -20.60792,-13.06095 -26.93359,-22.88282 -6.32568,-9.82186 -9.48828,-21.42046 -9.48828,-34.79492 h 45.91211 c 0,7.73211 2.85679,13.89863 8.57031,18.4961 5.91756,4.38849 13.8744,6.58203 23.87305,6.58203 9.59053,0 17.03834,-2.19354 22.34375,-6.58203 5.50945,-4.3885 8.26562,-10.44954 8.26562,-18.18164 0,-6.68723 -2.04196,-12.43379 -6.12305,-17.24024 -4.08107,-4.80644 -9.79468,-8.04499 -17.14062,-9.7168 l -22.64844,-5.33007 c -18.97702,-4.59748 -33.772,-13.06105 -44.38281,-25.39063 -10.40676,-12.53855 -15.60938,-27.7937 -15.60938,-45.76562 0,-20.06168 6.63103,-36.04932 19.89453,-47.96094 13.26352,-12.1206 31.2211,-18.17969 53.8711,-18.17969 z"
     id="path1009" />
  <!--! Font Awesome Pro 6.2.1 by @fontawesome - https://fontawesome.com License - https://fontawesome.com/license (Commercial License) Copyright 2022 Fonticons, Inc. -->
</svg>
